<?xml version="1.0" encoding="UTF-8" standalone="no"?>
<svg width="743px" height="133px" viewBox="0 0 743 133" version="1.1" xmlns="http://www.w3.org/2000/svg" xmlns:xlink="http://www.w3.org/1999/xlink" xmlns:sketch="http://www.bohemiancoding.com/sketch/ns">
    <!-- Generator: Sketch 3.0 (7573) - http://www.bohemiancoding.com/sketch -->
    <title>logo-orange</title>
    <description>Created with Sketch.</description>
    <defs></defs>
    <g id="Page-1" stroke="none" stroke-width="1" fill="none" fill-rule="evenodd" sketch:type="MSPage">
        <path d="M42.5254921,1.9261716 L0.524,1.9261716 L0.524,6.55188659 L19.02686,6.55188659 L19.02686,131.446191 L24.0226321,131.446191 L24.0226321,6.55188659 L42.5254921,6.55188659 L42.5254921,1.9261716 Z M98.2191006,1.9261716 L98.2191006,92.4051568 L61.3984093,92.4051568 L61.3984093,1.9261716 L56.2176085,1.9261716 L56.2176085,131.446191 L61.3984093,131.446191 L61.3984093,97.2159004 L98.2191006,97.2159004 L98.2191006,131.446191 L103.214873,131.446191 L103.214873,1.9261716 L98.2191006,1.9261716 Z M164.644368,6.55188659 L164.644368,1.9261716 L123.012933,1.9261716 L123.012933,131.446191 L164.644368,131.446191 L164.644368,126.635448 L128.193734,126.635448 L128.193734,95.7356716 L157.058195,95.7356716 L157.058195,91.1099566 L128.193734,91.1099566 L128.193734,6.55188659 L164.644368,6.55188659 Z M258.453868,1.9261716 L258.453868,92.4051568 L239.951008,80.4490233 L221.633177,92.4051568 L221.633177,1.9261716 L216.452376,1.9261716 L216.452376,131.446191 L221.633177,131.446191 L221.633177,97.2159004 L239.951008,85.2597669 L258.453868,97.2159004 L258.453868,131.446191 L263.44964,131.446191 L263.44964,1.9261716 L258.453868,1.9261716 Z M305.451132,132.741392 C320.993535,132.741392 328.579707,120.159447 328.579707,107.022416 L328.579707,26.5349753 C328.579707,12.6578304 320.068392,0.816 305.451132,0.816 C289.723701,0.816 281.582443,13.0278876 281.582443,26.3499467 L281.582443,107.207445 C281.582443,121.269618 290.463816,132.741392 305.451132,132.741392 Z M305.451132,5.62674359 C318.033077,5.62674359 323.583935,16.1733738 323.583935,26.5349753 L323.583935,107.022416 C323.583935,118.309161 317.66302,127.745619 305.451132,127.745619 C292.684159,127.745619 286.763244,118.124132 286.763244,107.207445 L286.763244,26.3499467 C286.763244,14.8781736 292.684159,5.62674359 305.451132,5.62674359 Z M407.586919,131.446191 L402.591147,1.741143 L394.819946,1.741143 L375.947029,123.304933 L357.444169,1.741143 L350.228053,1.741143 L345.047252,131.446191 L350.228053,131.446191 L354.66874,15.0632022 L372.061428,131.446191 L379.832629,131.446191 L397.780403,15.0632022 L402.406118,131.446191 L407.586919,131.446191 Z M467.351157,6.55188659 L467.351157,1.9261716 L425.719722,1.9261716 L425.719722,131.446191 L467.351157,131.446191 L467.351157,126.635448 L430.900523,126.635448 L430.900523,95.7356716 L459.764984,95.7356716 L459.764984,91.1099566 L430.900523,91.1099566 L430.900523,6.55188659 L467.351157,6.55188659 Z M541.362597,132.741392 C557.275056,132.741392 564.491172,119.604361 564.491172,106.837388 L564.491172,97.400929 L559.495399,97.400929 L559.495399,106.837388 C559.495399,117.939104 553.759513,127.745619 541.362597,127.745619 C528.780652,127.745619 522.489679,117.198989 522.489679,106.652359 L522.489679,27.4601183 C522.489679,14.1380592 530.260881,6.18182939 541.362597,6.18182939 C553.389456,6.18182939 559.495399,16.1733738 559.495399,27.4601183 L559.680428,37.6366913 L564.491172,37.6366913 L564.491172,27.2750897 C564.491172,12.842859 555.239742,1.1860572 540.992539,1.1860572 C526.560309,1.1860572 517.308879,13.0278876 517.308879,27.4601183 L517.308879,106.652359 C517.308879,121.08459 526.190251,132.741392 541.362597,132.741392 Z M587.249689,126.635448 L587.249689,1.9261716 L582.068889,1.9261716 L582.068889,131.446191 L616.669237,131.446191 L616.669237,126.635448 L587.249689,126.635448 Z M677.913703,1.9261716 L672.917931,1.9261716 L672.917931,107.022416 C672.917931,118.494189 667.922159,128.115677 654.415071,128.115677 C641.463069,128.115677 636.09724,117.198989 636.09724,106.837388 L636.09724,1.9261716 L630.916439,1.9261716 L630.916439,106.837388 C630.916439,121.269618 639.797812,132.92642 654.415071,132.92642 C670.327531,132.92642 677.913703,120.159447 677.913703,107.022416 L677.913703,1.9261716 Z M742.488684,103.321844 C742.488684,97.7709862 740.638398,93.1452712 737.492912,89.999785 C735.642626,88.149499 733.422283,86.8542988 730.646854,86.1141844 C737.862969,81.3034408 742.488684,73.1621824 742.488684,64.8358955 L742.673713,26.5349753 C742.673713,11.5476588 731.942054,1.9261716 718.619995,1.9261716 L697.341706,1.9261716 L697.341706,131.446191 L725.466053,131.446191 C733.79234,131.446191 742.488684,126.080362 742.488684,112.758303 L742.488684,103.321844 Z M718.619995,6.92194379 C730.461825,7.10697239 737.677941,15.2482308 737.677941,26.5349753 L737.677941,64.6508669 C737.677941,77.2328116 726.946282,85.0040128 718.990052,85.0040128 L702.522507,85.0040128 L702.522507,6.92194379 L718.619995,6.92194379 Z M737.677941,112.758303 C737.677941,116.828932 736.382741,126.635448 725.466053,126.635448 L702.522507,126.635448 L702.522507,89.8147564 L722.690624,89.8147564 C727.686396,89.8147564 731.386968,91.1099566 733.977369,93.5153284 C736.197712,95.7356716 737.677941,99.251215 737.677941,103.321844 L737.677941,112.758303 Z" id="THE-HOME-CLUB" fill="#FFFFFF" sketch:type="MSShapeGroup"></path>
    </g>
</svg>