<?xml version="1.0" encoding="UTF-8" standalone="no"?>
<svg width="512px" height="512px" viewBox="0 0 512 512" version="1.1" xmlns="http://www.w3.org/2000/svg" xmlns:xlink="http://www.w3.org/1999/xlink" xmlns:sketch="http://www.bohemiancoding.com/sketch/ns">
    <title>medal</title>
    <description>Created with Sketch (http://www.bohemiancoding.com/sketch)</description>
    <defs></defs>
    <g id="Page-1" stroke="none" stroke-width="1" fill="none" fill-rule="evenodd" sketch:type="MSPage">
        <g id="medal" sketch:type="MSArtboardGroup">
            <g id="Medal-copy" sketch:type="MSLayerGroup" transform="translate(43.000000, 18.000000)">
                <path d="M339.870522,182.166174 C349.242763,174.234918 354.505445,165.314232 354.505445,155.883041 C354.505445,146.079061 348.818502,136.826742 338.739955,128.664074 L338.739955,128.664074 C344.62711,117.107791 346.059134,106.342289 342.071496,97.3859074 C338.544417,89.4639582 331.128373,83.7459217 320.793651,80.207304 C321.193706,69.2908878 318.513131,60.3182576 312.381349,54.186475 C305.712489,47.5176156 295.683334,44.9310168 283.447913,45.9499469 C279.605081,34.289054 273.3054,26.0678312 264.560951,22.5348445 C256.1665,19.1432661 246.39147,20.4246125 236.010844,25.5917519 C228.321737,16.9122112 219.738488,12.0623782 210.684783,12.0623782 C201.253591,12.0623782 192.332906,17.3250604 184.401647,26.697304 C173.43886,21.1690981 163.171031,19.8103625 154.489573,23.4954228 C146.155591,27.032988 140.14965,34.851027 136.463153,45.8449571 C124.888776,45.1446151 115.390153,47.7845383 108.988217,54.186475 C102.58628,60.5884114 99.946357,70.0870336 100.646699,81.6614109 C89.6527689,85.3479081 81.8347297,91.3538496 78.2971645,99.6878311 C74.6121041,108.369289 75.9708398,118.637118 81.4990457,129.599906 C72.1268022,137.531164 66.8641198,146.45185 66.8641198,155.883041 C66.8641198,165.687021 72.5510628,174.93934 82.62961,183.102008 C76.7424553,194.658291 75.3104315,205.423793 79.2980694,214.380175 C82.8251485,222.302124 90.2411922,228.02016 100.575915,231.55877 C100.175858,242.47519 102.856433,251.447823 108.988217,257.579607 C115.657076,264.248466 125.686232,266.835065 137.921653,265.816135 C141.764485,277.477028 148.064165,285.698251 156.808614,289.231237 C165.203065,292.622816 174.978095,291.341469 185.358721,286.17433 L185.358725,286.174333 C193.047828,294.85387 201.631077,299.703704 210.684783,299.703704 C220.115974,299.703704 229.03666,294.441021 236.967916,285.06878 L236.967918,285.068778 C247.930705,290.596984 258.198534,291.955719 266.879992,288.270659 C275.213974,284.733094 281.219915,276.915055 284.906411,265.921125 C296.480788,266.621467 305.979412,263.981544 312.381349,257.579607 C318.783285,251.17767 321.423209,241.679047 320.722866,230.10467 C331.716797,226.418174 339.534836,220.412232 343.072401,212.078251 C346.757461,203.396793 345.398725,193.128964 339.87052,182.166176 Z" id="Oval-9" stroke="#DA5757" stroke-width="8" sketch:type="MSShapeGroup"></path>
                <ellipse id="Oval-18" stroke="#DA5757" stroke-width="8" sketch:type="MSShapeGroup" cx="210.684783" cy="155.419103" rx="70.8456522" ry="70.9824561"></ellipse>
                <path d="M185.291785,286.982634 C191.478872,294.011902 198.246469,298.552102 205.373395,300.068966 L205.373395,300.068966 L100.865446,481.082043 L74.1900997,410.598141 L-0.188422581,422.738564 L101.730814,246.209268 L101.730814,246.209268 C103.086552,250.988604 105.377273,255.088708 108.660163,258.371598 C115.348169,265.059604 125.427867,267.629802 137.732604,266.565694 C141.560934,278.308045 147.865266,286.582201 156.63482,290.125331 C165.053639,293.526754 174.866959,292.213494 185.291785,286.982634 L185.291785,286.982634 Z M237.036204,285.868358 C231.993147,291.86623 226.548937,296.196196 220.826954,298.56023 L220.826954,298.56023 L325.134554,479.226292 L351.8099,408.742391 L426.188423,420.882814 L320.970763,238.640482 L320.970763,238.640482 C320.305267,246.735405 317.615084,253.465916 312.709402,258.371598 C306.288881,264.792119 296.742542,267.417626 285.102579,266.675899 C281.429891,277.746139 275.419441,285.613819 267.061267,289.161653 C258.354884,292.857294 248.046337,291.464418 237.036204,285.868358 L237.036204,285.868358 Z" id="Rectangle-8" stroke="#DA5757" stroke-width="8" sketch:type="MSShapeGroup"></path>
                <g id="Group" transform="translate(0.000000, 171.656920)"></g>
            </g>
        </g>
    </g>
</svg>