<?xml version="1.0" encoding="UTF-8" standalone="no"?>
<svg width="512px" height="512px" viewBox="0 0 512 512" version="1.1" xmlns="http://www.w3.org/2000/svg" xmlns:xlink="http://www.w3.org/1999/xlink" xmlns:sketch="http://www.bohemiancoding.com/sketch/ns">
    <!-- Generator: Sketch 3.0 (7573) - http://www.bohemiancoding.com/sketch -->
    <title>pig</title>
    <description>Created with Sketch.</description>
    <defs></defs>
    <g id="Page-1" stroke="none" stroke-width="1" fill="none" fill-rule="evenodd" sketch:type="MSPage">
        <g id="pig" sketch:type="MSArtboardGroup">
            <g id="Money-copy" sketch:type="MSLayerGroup" transform="translate(5.000000, 21.000000)">
                <path d="M326.141936,94.9622282 C303.143528,88.5139207 278.348332,85 252.5,85 C132.378061,85 35,160.88773 35,254.5 C35,302.872316 61.0009568,346.511995 102.705411,377.39412 L102.705428,377.394133 L90.3122991,409.679337 C85.1680811,423.080483 91.8646967,438.115643 105.279181,443.264981 L153.80892,461.893803 C167.219119,467.041496 182.261687,460.347515 187.404663,446.949604 L198.254094,418.68587 C215.594552,422.155135 233.770819,424 252.5,424 C264.840059,424 276.940094,423.199131 288.719191,421.660451 L300.87098,448.953709 C306.70951,462.067262 322.076196,467.963503 335.202801,462.119162 L382.691074,440.97602 C395.813485,435.133547 401.716828,419.763485 395.879708,406.653098 L387.351294,387.497967 C416.548084,369.494494 439.676745,345.776333 453.956175,318.510825 L453.956175,318.510825 C455.58794,318.831775 457.274361,319 458.999907,319 L476.000093,319 C490.359445,319 502,307.35819 502,293.00121 L502,234.99879 C502,220.640055 490.353627,209 476.000093,209 L462.074496,209 C448.950538,172.208889 420.302787,140.45455 381.975785,118.291693 C385.5271,101.04919 394.062459,81.6767064 411.925119,62.8925543 C383.511401,55.5425703 349.868976,75.976688 326.141936,94.9622282 Z" id="Rectangle-2" stroke="#DA5757" stroke-width="8" sketch:type="MSShapeGroup"></path>
                <path d="M245.51211,73.0038074 C245.834172,70.3809989 246,67.7098651 246,65 C246,29.1014895 216.898511,0 181,0 C145.101489,0 116,29.1014895 116,65 C116,78.1821706 119.924065,90.447826 126.667803,100.692574 C128.948996,99.5361749 131.259958,98.4117109 133.599613,97.3200094 C127.534454,88.2080224 124,77.2667695 124,65.5 C124,33.7436253 149.743625,8 181.5,8 C213.256375,8 239,33.7436253 239,65.5 C239,68.0849246 238.82943,70.6300104 238.49893,73.1246159 C240.827525,73.0562314 243.165436,73.0158205 245.51211,73.0038074 Z" id="Oval-3" fill="#DA5757" sketch:type="MSShapeGroup"></path>
                <circle id="Oval-2" stroke="#DA5757" stroke-width="8" sketch:type="MSShapeGroup" cx="406.5" cy="213.5" r="15.5"></circle>
                <path d="M42,220 C42,220 21.0449785,212.863686 9.23643809,200.25949 C-1.3580985,188.951099 -6.770187,156.792965 25.1638644,138" id="Path-1" stroke="#DA5757" stroke-width="8" sketch:type="MSShapeGroup"></path>
            </g>
        </g>
    </g>
</svg>